<svg width="139" height="97" viewBox="0 0 139 97" fill="none" xmlns="http://www.w3.org/2000/svg">
<path d="M100.636 1.52434C100.497 1.38577 100.08 1.38577 99.802 1.52434C90.767 7.76005 67.832 1.38577 51.569 17.5986C46.009 23.1415 44.063 28.5458 44.063 33.2572C44.063 42.2643 51.152 48.5001 51.569 49.0543L51.708 49.1929L47.121 52.9343L48.233 54.0429L49.345 55.1515L53.098 50.4401C53.098 50.4401 53.098 50.4401 53.237 50.5786C53.793 50.9943 59.909 58.0615 68.944 58.0615C73.67 58.0615 78.952 56.1215 84.651 50.5786C100.914 34.2272 95.354 12.3329 100.775 2.35577C100.914 2.07862 100.914 1.80148 100.636 1.52434ZM96.605 15.1043C95.771 14.8272 94.798 14.4115 93.825 14.1343C92.435 13.5801 90.906 13.0258 89.377 12.4715C88.404 13.4415 87.431 14.4115 86.736 15.1043C85.902 15.9358 85.207 16.6286 84.373 17.4601C83.678 18.1529 82.844 18.9843 82.01 19.8158C81.176 20.6472 80.342 21.4786 79.23 22.5872C80.759 23.1415 82.149 23.6958 83.539 24.1115C84.929 24.6658 86.319 25.0815 87.57 25.4972C88.96 25.9129 90.211 26.3286 91.462 26.8829C92.574 27.2986 93.547 27.5758 94.659 27.8529C93.825 31.8715 92.574 35.8901 90.489 39.7701C89.655 39.4929 88.821 39.3543 87.987 39.0772C86.875 38.6615 85.624 38.3843 84.373 37.9686C83.122 37.5529 82.01 37.2758 80.759 36.8601C79.508 36.4443 78.257 36.0286 77.006 35.6129C75.755 35.1972 74.365 34.7815 73.114 34.2272C71.724 33.8115 70.334 33.2572 68.944 32.7029C67.971 33.6729 66.998 34.6429 66.164 35.4743C65.33 36.3058 64.496 37.1372 63.801 37.8301C62.967 38.6615 62.272 39.3543 61.438 40.1858C60.604 41.0172 59.631 41.9872 58.658 42.9572C60.048 43.5115 61.438 43.9272 62.828 44.4815C64.218 44.8972 65.469 45.4515 66.859 45.8672C68.11 46.2829 69.5 46.6986 70.751 47.1143C72.002 47.5301 73.253 47.8072 74.504 48.2229C75.755 48.6386 77.006 48.9158 78.118 49.1929C79.369 49.4701 80.481 49.8858 81.732 50.1629C82.01 50.1629 82.149 50.3015 82.427 50.3015C77.562 54.7358 72.975 56.26 68.944 56.26C60.604 56.26 54.627 49.7472 54.071 49.1929C53.793 48.9158 53.515 48.6386 53.237 48.3615L53.376 48.2229C54.21 47.3915 54.905 46.6986 55.739 45.8672C56.573 45.0358 57.546 44.0658 58.519 43.0958C58.102 41.7101 57.685 40.3243 57.268 38.9386C56.851 37.5529 56.573 36.3058 56.156 34.9201C55.878 33.6729 55.461 32.2872 55.183 31.0401C54.905 29.7929 54.627 28.5458 54.349 27.2986C54.071 26.0515 53.793 24.8043 53.515 23.6958C53.237 22.4486 52.959 21.3401 52.82 20.0929C52.681 19.4001 52.542 18.7072 52.403 18.0143C55.739 14.6886 59.353 12.4715 62.967 10.6701C63.106 11.3629 63.245 11.9172 63.384 12.6101C63.662 13.8572 63.94 15.1043 64.218 16.3515C64.496 17.5986 64.913 18.8458 65.191 20.2315C65.469 21.4786 65.886 22.8643 66.303 24.2501C66.72 25.6358 66.998 27.0215 67.415 28.4072C67.832 29.7929 68.249 31.3172 68.666 32.7029C69.639 31.7329 70.612 30.7629 71.446 29.9315C72.28 29.1001 72.975 28.4072 73.809 27.5758C74.504 26.7443 75.338 26.0515 76.172 25.2201C77.006 24.3886 77.84 23.5572 78.952 22.4486C78.535 20.9243 77.979 19.4001 77.562 17.8758C77.145 16.3515 76.728 14.9658 76.311 13.5801C75.894 12.1943 75.616 10.8086 75.199 9.42291C74.921 8.59148 74.782 7.76005 74.643 7.0672C78.952 6.23577 83.122 5.95862 87.014 5.54291C87.153 6.23577 87.431 6.92862 87.57 7.76005C87.987 9.28434 88.404 10.8086 88.96 12.4715C89.933 11.5015 90.767 10.6701 91.601 9.83862C92.435 9.0072 93.13 8.31434 93.964 7.48291C94.659 6.79005 95.493 5.95862 96.327 5.1272C97.022 4.43434 97.717 3.74148 98.412 3.04862C98.412 3.04862 98.551 3.04862 98.551 2.91005C97.578 6.51291 97.022 10.6701 96.605 15.1043Z" fill="white"/>
<path d="M3.753 87.9929C3.892 87.8543 3.892 87.7158 4.031 87.7158C4.17 87.7158 4.448 87.8543 4.726 87.9929C5.838 88.6858 6.672 88.6858 6.95 88.6858C8.757 88.6858 9.452 87.5772 9.73 86.7458C10.147 85.9143 10.425 84.5286 10.425 83.5586V83.1429H6.95C6.672 83.1429 6.394 83.2815 6.394 82.5886V80.7872C6.394 80.51 6.394 80.2329 6.95 80.2329H10.425V79.8172C10.425 78.4315 10.008 76.9072 9.313 76.0758C8.896 75.5215 8.201 75.2443 7.228 75.2443C6.255 75.2443 5.699 75.5215 4.865 76.2143C4.726 76.3529 4.448 76.4915 4.309 76.4915C4.17 76.4915 4.031 76.3529 4.031 76.2143L3.058 74.8286C2.919 74.69 2.919 74.5515 2.919 74.5515C2.919 74.4129 3.058 74.2743 3.475 73.8586C4.726 72.75 6.394 72.4729 7.506 72.4729C10.286 72.4729 14.178 74.1358 14.178 82.1729C14.178 85.7758 13.344 91.5958 7.228 91.5958C5.699 91.5958 4.031 91.18 3.058 90.3486C3.058 90.21 2.78 90.0715 2.78 89.9329C2.78 89.7943 2.919 89.6558 2.919 89.5172L3.753 87.9929Z" fill="white"/>
<path d="M35.167 91.5958C28.634 91.5958 28.495 83.9743 28.495 82.0343C28.495 80.0943 28.634 72.4729 35.167 72.4729C41.7 72.4729 41.839 80.0943 41.839 82.0343C41.839 83.9743 41.7 91.5958 35.167 91.5958ZM38.086 82.0343C38.086 79.4015 37.808 75.3829 35.167 75.3829C32.665 75.3829 32.248 79.54 32.248 82.0343C32.248 84.2515 32.387 88.6858 35.167 88.6858C37.947 88.6858 38.086 84.2515 38.086 82.0343Z" fill="white"/>
<path d="M53.376 72.8887H42.673C42.256 72.8887 42.256 73.1658 42.256 73.3044V75.6601C42.256 75.7987 42.256 76.0758 42.673 76.0758H46.287V90.6258C46.287 90.903 46.287 91.1801 46.843 91.1801H49.345C49.623 91.1801 49.901 91.1801 49.901 90.6258V76.0758H53.515C53.932 76.0758 53.932 75.7987 53.932 75.6601V73.3044C53.793 73.1658 53.793 72.8887 53.376 72.8887Z" fill="white"/>
<path d="M64.774 75.7987C65.052 75.7987 65.33 75.7987 65.33 75.2444V73.443C65.33 73.0272 65.052 72.8887 64.774 72.8887H56.156C55.878 72.8887 55.6 72.8887 55.6 73.443V90.6258C55.6 90.903 55.6 91.1801 56.156 91.1801H64.774C65.052 91.1801 65.33 91.1801 65.33 90.6258V88.8244C65.33 88.4087 65.052 88.2701 64.774 88.2701H59.214V83.143H62.828C63.106 83.143 63.384 83.143 63.384 82.5887V80.7872C63.384 80.5101 63.384 80.233 62.828 80.233H59.214V75.7987H64.774Z" fill="white"/>
<path d="M90.072 75.7987C90.35 75.7987 90.628 75.7987 90.628 75.2444V73.443C90.628 73.0272 90.35 72.8887 90.072 72.8887H81.454C81.176 72.8887 80.898 72.8887 80.898 73.443V90.6258C80.898 90.903 80.898 91.1801 81.454 91.1801H90.072C90.35 91.1801 90.628 91.1801 90.628 90.6258V88.8244C90.628 88.4087 90.35 88.2701 90.072 88.2701H84.512V83.143H88.126C88.404 83.143 88.682 83.143 88.682 82.5887V80.7872C88.682 80.5101 88.682 80.233 88.126 80.233H84.512V75.7987H90.072Z" fill="white"/>
<path d="M111.617 91.5958C105.084 91.5958 104.945 83.9743 104.945 82.0343C104.945 80.0943 105.084 72.4729 111.617 72.4729C118.15 72.4729 118.289 80.0943 118.289 82.0343C118.289 83.9743 118.15 91.5958 111.617 91.5958ZM114.536 82.0343C114.536 79.4015 114.258 75.3829 111.617 75.3829C109.115 75.3829 108.698 79.54 108.698 82.0343C108.698 84.2515 108.837 88.6858 111.617 88.6858C114.397 88.6858 114.536 84.2515 114.536 82.0343Z" fill="white"/>
<path d="M124.544 81.4801C124.405 81.0644 123.988 79.4015 123.571 77.323H123.432C123.432 80.9258 123.432 81.8958 123.432 82.7272L123.154 90.6258C123.154 91.0415 123.154 91.1801 122.737 91.1801H120.513C120.235 91.1801 120.096 91.0415 120.096 90.6258L120.93 73.443C120.93 73.0272 121.069 72.8887 121.347 72.8887H124.127C124.405 72.8887 124.405 72.8887 124.544 73.3044L126.768 79.9558C127.046 80.9258 127.463 82.5887 127.602 83.143C127.741 81.8958 128.019 81.203 128.436 79.9558L130.66 73.3044C130.799 73.0272 130.799 72.8887 131.077 72.8887H133.857C134.274 72.8887 134.413 72.8887 134.413 73.7201L135.108 90.4872C135.108 90.903 134.969 91.0415 134.691 91.0415H132.05C131.772 91.0415 131.633 90.903 131.633 90.4872L131.355 81.4801C131.355 80.9258 131.355 80.6487 131.355 79.9558V79.4015V77.323H131.216C130.938 78.9858 130.66 80.233 130.243 81.4801L128.575 86.6072C128.436 86.8844 128.436 87.023 128.158 87.023H126.49C126.073 87.023 126.073 86.7458 126.073 86.6072L124.544 81.4801Z" fill="white"/>
<path d="M27.8 90.3486C27.8 89.9329 26.41 85.0829 26.271 84.39C26.132 83.6971 25.715 82.3114 23.908 81.6186V81.48C25.298 81.0643 25.715 80.2329 25.993 78.9857C26.271 77.8771 27.105 74.4129 27.383 73.1657C27.383 72.8886 27.383 72.75 26.966 72.75H24.186C24.047 72.75 23.908 72.8886 23.908 73.0271C23.908 73.1657 23.491 76.4914 23.213 78.1543C22.935 79.6786 22.24 80.0943 20.989 80.0943H20.016V73.4429C20.016 72.8886 19.738 72.8886 19.46 72.8886H16.68C16.402 72.8886 16.124 72.8886 16.124 73.4429V90.6257C16.124 91.18 16.402 91.18 16.68 91.18H19.182C19.46 91.18 19.738 91.18 19.738 90.6257V83.1429H20.85C22.518 83.1429 22.796 84.2514 22.935 84.9443C23.074 85.6371 23.769 90.3486 23.908 90.6257C24.047 91.0414 24.186 91.18 24.603 91.18H27.244C27.661 91.18 27.8 90.7643 27.8 90.3486Z" fill="white"/>
<path d="M104.25 90.3486C104.111 89.9329 102.86 85.0829 102.721 84.39C102.582 83.6971 102.165 82.3114 100.358 81.6186V81.48C101.748 81.0643 102.165 80.2329 102.443 78.9857C102.721 77.8771 103.555 74.4129 103.833 73.1657C103.833 72.8886 103.833 72.75 103.416 72.75H100.636C100.497 72.75 100.358 72.8886 100.358 73.0271C100.358 73.1657 99.941 76.4914 99.663 78.1543C99.385 79.6786 98.69 80.0943 97.439 80.0943H96.466V73.4429C96.466 72.8886 96.188 72.8886 95.91 72.8886H93.408C93.13 72.8886 92.852 72.8886 92.852 73.4429V90.6257C92.852 91.18 93.13 91.18 93.408 91.18H95.91C96.188 91.18 96.466 91.18 96.466 90.6257V83.1429H97.578C99.246 83.1429 99.524 84.2514 99.663 84.9443C99.802 85.6371 100.497 90.3486 100.636 90.6257C100.775 91.0414 100.914 91.18 101.331 91.18H103.833C104.111 91.18 104.389 90.7643 104.25 90.3486Z" fill="white"/>
<path d="M77.979 72.8887H72.28C71.307 72.8887 70.751 73.3044 70.473 74.2744C70.195 75.2444 66.72 89.933 66.581 90.3487C66.442 90.7644 66.72 91.1801 67.137 91.1801H69.778C70.195 91.1801 70.334 91.0415 70.473 90.6258C70.473 90.3487 73.253 76.2144 73.253 76.2144H74.782V90.7644C74.782 91.0415 74.782 91.3187 75.338 91.3187H77.84C78.118 91.3187 78.396 91.3187 78.396 90.7644V73.443C78.396 73.0272 78.118 72.8887 77.979 72.8887Z" fill="white"/>
</svg>
