<svg width="43" height="43" viewBox="0 0 43 43" fill="none" xmlns="http://www.w3.org/2000/svg">
<path d="M41.0889 6.92778L43 5.01667C39.6556 1.67222 35.3556 0 31.0556 0C26.7556 0 22.4556 1.67222 19.1111 5.01667L21.0222 6.92778C23.8889 4.3 27.4722 2.86667 31.0556 2.86667C34.6389 2.86667 38.2222 4.3 41.0889 6.92778ZM38.9389 8.83889C36.7889 6.68889 33.9222 5.49444 31.0556 5.49444C28.1889 5.49444 25.3222 6.68889 23.1722 8.83889L25.0833 10.75C26.7556 9.07778 28.9056 8.36111 31.0556 8.36111C33.2056 8.36111 35.3556 9.07778 37.0278 10.75L38.9389 8.83889ZM38.2222 23.8889H33.4444V14.3333H28.6667V23.8889H4.77778C3.51063 23.8889 2.29539 24.3923 1.39938 25.2883C0.503371 26.1843 0 27.3995 0 28.6667V38.2222C0 39.4894 0.503371 40.7046 1.39938 41.6006C2.29539 42.4966 3.51063 43 4.77778 43H38.2222C39.4894 43 40.7046 42.4966 41.6006 41.6006C42.4966 40.7046 43 39.4894 43 38.2222V28.6667C43 27.3995 42.4966 26.1843 41.6006 25.2883C40.7046 24.3923 39.4894 23.8889 38.2222 23.8889ZM11.9444 35.8333H7.16667V31.0556H11.9444V35.8333ZM20.3056 35.8333H15.5278V31.0556H20.3056V35.8333ZM28.6667 35.8333H23.8889V31.0556H28.6667V35.8333Z" fill="white"/>
</svg>
